<?xml version="1.0" encoding="UTF-8" standalone="no"?>
<!-- Created with Inkscape (http://www.inkscape.org/) -->

<svg
   xmlns:dc="http://purl.org/dc/elements/1.1/"
   xmlns:cc="http://creativecommons.org/ns#"
   xmlns:rdf="http://www.w3.org/1999/02/22-rdf-syntax-ns#"
   xmlns:svg="http://www.w3.org/2000/svg"
   xmlns="http://www.w3.org/2000/svg"
   xmlns:sodipodi="http://sodipodi.sourceforge.net/DTD/sodipodi-0.dtd"
   xmlns:inkscape="http://www.inkscape.org/namespaces/inkscape"
   width="230.76678"
   height="162.63324"
   id="svg3175"
   version="1.1"
   inkscape:version="0.48.3.1 r9886"
   sodipodi:docname="demux.svg">
  <defs
     id="defs3177">
    <inkscape:path-effect
       is_visible="true"
       id="path-effect3402"
       effect="spiro" />
    <inkscape:path-effect
       effect="spiro"
       id="path-effect3394"
       is_visible="true" />
    <inkscape:path-effect
       is_visible="true"
       id="path-effect3390"
       effect="spiro" />
    <inkscape:path-effect
       is_visible="true"
       id="path-effect3386"
       effect="spiro" />
    <inkscape:path-effect
       effect="spiro"
       id="path-effect3327"
       is_visible="true" />
    <inkscape:path-effect
       effect="spiro"
       id="path-effect3321"
       is_visible="true" />
    <inkscape:path-effect
       is_visible="true"
       id="path-effect2840-3"
       effect="spiro" />
  </defs>
  <sodipodi:namedview
     id="base"
     pagecolor="#ffffff"
     bordercolor="#666666"
     borderopacity="1.0"
     inkscape:pageopacity="0.0"
     inkscape:pageshadow="2"
     inkscape:zoom="2.8284271"
     inkscape:cx="107.20583"
     inkscape:cy="84.895542"
     inkscape:document-units="px"
     inkscape:current-layer="layer1"
     showgrid="false"
     inkscape:window-width="1168"
     inkscape:window-height="924"
     inkscape:window-x="818"
     inkscape:window-y="24"
     inkscape:window-maximized="0"
     showguides="true"
     inkscape:guide-bbox="true"
     fit-margin-top="5"
     fit-margin-left="5"
     fit-margin-bottom="5"
     fit-margin-right="5">
    <sodipodi:guide
       orientation="1,0"
       position="96.120963,153.86216"
       id="guide3420" />
  </sodipodi:namedview>
  <metadata
     id="metadata3180">
    <rdf:RDF>
      <cc:Work
         rdf:about="">
        <dc:format>image/svg+xml</dc:format>
        <dc:type
           rdf:resource="http://purl.org/dc/dcmitype/StillImage" />
        <dc:title />
      </cc:Work>
    </rdf:RDF>
  </metadata>
  <g
     inkscape:label="Layer 1"
     inkscape:groupmode="layer"
     id="layer1"
     transform="translate(-77.473747,-112.9502)">
    <path
       style="fill:none;stroke:#000000;stroke-width:1;stroke-linecap:butt;stroke-linejoin:miter;stroke-miterlimit:4;stroke-opacity:1;stroke-dasharray:none;marker-end:none"
       d="m 140.83531,213.73843 -39.00701,0"
       id="path3351"
       inkscape:connector-curvature="0" />
    <path
       style="fill:none;stroke:#000000;stroke-width:1px;stroke-linecap:butt;stroke-linejoin:miter;stroke-opacity:1;marker-start:none;marker-end:none"
       d="m 179.14019,250.36534 87.88327,0"
       id="path3353"
       inkscape:connector-curvature="0" />
    <path
       style="fill:none;stroke:#000000;stroke-width:1;stroke-linecap:butt;stroke-linejoin:miter;stroke-miterlimit:4;stroke-opacity:1;stroke-dasharray:none"
       d="m 191.48665,199.71848 73.63212,0"
       id="path3359"
       inkscape:connector-curvature="0"
       sodipodi:nodetypes="cc" />
    <path
       style="fill:none;stroke:#000000;stroke-width:1;stroke-linecap:butt;stroke-linejoin:miter;stroke-miterlimit:4;stroke-opacity:1;stroke-dasharray:none;marker-end:none"
       d="m 239.19437,133.50743 27.91195,0"
       id="path3361"
       inkscape:connector-curvature="0"
       sodipodi:nodetypes="cc" />
    <text
       xml:space="preserve"
       style="font-size:40px;font-style:normal;font-weight:normal;line-height:125%;letter-spacing:0px;word-spacing:0px;fill:#000000;fill-opacity:1;stroke:none;font-family:Sans"
       x="87.983818"
       y="152.16077"
       id="text4149"
       sodipodi:linespacing="125%"><tspan
         sodipodi:role="line"
         id="tspan4151"
         x="87.983818"
         y="152.16077"
         style="font-size:20px">Vi</tspan></text>
    <text
       sodipodi:linespacing="125%"
       id="text4153"
       y="223.03186"
       x="81.155388"
       style="font-size:40px;font-style:normal;font-weight:normal;line-height:125%;letter-spacing:0px;word-spacing:0px;fill:#000000;fill-opacity:1;stroke:none;font-family:Sans"
       xml:space="preserve"><tspan
         style="font-size:20px"
         y="223.03186"
         x="81.155388"
         id="tspan4155"
         sodipodi:role="line">Si</tspan></text>
    <text
       xml:space="preserve"
       style="font-size:20px;font-style:normal;font-weight:normal;line-height:125%;letter-spacing:0px;word-spacing:0px;fill:#000000;fill-opacity:1;stroke:none;font-family:Sans"
       x="267.09442"
       y="135.71455"
       id="text4783"
       sodipodi:linespacing="125%"><tspan
         sodipodi:role="line"
         id="tspan4785"
         x="267.09442"
         y="135.71455">V</tspan></text>
    <text
       xml:space="preserve"
       style="font-size:16px;font-style:normal;font-weight:normal;line-height:125%;letter-spacing:0px;word-spacing:0px;fill:#000000;fill-opacity:1;stroke:none;font-family:Sans"
       x="281.94366"
       y="144.19984"
       id="text4787"
       sodipodi:linespacing="125%"><tspan
         sodipodi:role="line"
         id="tspan4789"
         x="281.94366"
         y="144.19984">O1</tspan></text>
    <g
       id="g3374"
       transform="translate(0,-38)">
      <text
         xml:space="preserve"
         style="font-size:20px;font-style:normal;font-weight:normal;line-height:125%;letter-spacing:0px;word-spacing:0px;fill:#000000;fill-opacity:1;stroke:none;font-family:Sans"
         x="267.09442"
         y="245.40355"
         id="text5529"
         sodipodi:linespacing="125%"><tspan
           sodipodi:role="line"
           id="tspan5531"
           x="267.09442"
           y="245.40355">S</tspan></text>
      <text
         xml:space="preserve"
         style="font-size:16px;font-style:normal;font-weight:normal;line-height:125%;letter-spacing:0px;word-spacing:0px;fill:#000000;fill-opacity:1;stroke:none;font-family:Sans"
         x="279.94366"
         y="253.88884"
         id="text5533"
         sodipodi:linespacing="125%"><tspan
           sodipodi:role="line"
           id="tspan5535"
           x="279.94366"
           y="253.88884">O1</tspan></text>
    </g>
    <g
       id="g3368"
       transform="translate(0,-108)">
      <text
         xml:space="preserve"
         style="font-size:20px;font-style:normal;font-weight:normal;line-height:125%;letter-spacing:0px;word-spacing:0px;fill:#000000;fill-opacity:1;stroke:none;font-family:Sans"
         x="267.09442"
         y="286.18262"
         id="text5537"
         sodipodi:linespacing="125%"><tspan
           sodipodi:role="line"
           id="tspan5539"
           x="267.09442"
           y="286.18262">V</tspan></text>
      <text
         xml:space="preserve"
         style="font-size:16px;font-style:normal;font-weight:normal;line-height:125%;letter-spacing:0px;word-spacing:0px;fill:#000000;fill-opacity:1;stroke:none;font-family:Sans"
         x="281.94366"
         y="294.66791"
         id="text5541"
         sodipodi:linespacing="125%"><tspan
           sodipodi:role="line"
           id="tspan5543"
           x="281.94366"
           y="294.66791">O2</tspan></text>
    </g>
    <text
       xml:space="preserve"
       style="font-size:20px;font-style:normal;font-weight:normal;line-height:125%;letter-spacing:0px;word-spacing:0px;fill:#000000;fill-opacity:1;stroke:none;font-family:Sans"
       x="267.09442"
       y="261.87158"
       id="text5545"
       sodipodi:linespacing="125%"><tspan
         sodipodi:role="line"
         id="tspan5547"
         x="267.09442"
         y="261.87158">S</tspan></text>
    <text
       xml:space="preserve"
       style="font-size:16px;font-style:normal;font-weight:normal;line-height:125%;letter-spacing:0px;word-spacing:0px;fill:#000000;fill-opacity:1;stroke:none;font-family:Sans"
       x="281.94366"
       y="270.35687"
       id="text5549"
       sodipodi:linespacing="125%"><tspan
         sodipodi:role="line"
         id="tspan5551"
         x="281.94366"
         y="270.35687">O2</tspan></text>
    <text
       sodipodi:linespacing="125%"
       id="text3313"
       y="133.14551"
       x="81.963516"
       style="font-size:40px;font-style:normal;font-weight:normal;line-height:125%;letter-spacing:0px;word-spacing:0px;fill:#000000;fill-opacity:1;stroke:none;font-family:Sans"
       xml:space="preserve"><tspan
         style="font-size:20px"
         y="133.14551"
         x="81.963516"
         id="tspan3315"
         sodipodi:role="line">sel</tspan></text>
    <path
       style="fill:none;stroke:#000000;stroke-width:1px;stroke-linecap:butt;stroke-linejoin:miter;stroke-opacity:1"
       d="m 113.13709,124.7693 104.85026,0"
       id="path3329"
       inkscape:connector-curvature="0"
       sodipodi:nodetypes="cc" />
    <path
       style="fill:none;stroke:#000000;stroke-width:1px;stroke-linecap:butt;stroke-linejoin:miter;stroke-opacity:1"
       d="m 112.63201,143.98251 108.69925,0"
       id="path3331"
       inkscape:connector-curvature="0"
       sodipodi:nodetypes="cc" />
    <path
       style="fill:none;stroke:#000000;stroke-width:1px;stroke-linecap:butt;stroke-linejoin:miter;stroke-opacity:1"
       d="m 221.07872,186.92287 -16.66752,0 0,-61.88072"
       id="path3333"
       inkscape:connector-curvature="0"
       sodipodi:nodetypes="ccc" />
    <path
       style="fill:none;stroke:#000000;stroke-width:1px;stroke-linecap:butt;stroke-linejoin:miter;stroke-opacity:1"
       d="m 221.33126,163.39876 -9.52666,0 0,-19.41625"
       id="path3335"
       inkscape:connector-curvature="0"
       sodipodi:nodetypes="ccc" />
    <path
       sodipodi:type="arc"
       style="fill:#000000;stroke:none"
       id="path3337"
       sodipodi:cx="107.20244"
       sodipodi:cy="110.5212"
       sodipodi:rx="5.9346461"
       sodipodi:ry="5.9346461"
       d="m 113.13708,110.5212 c 0,3.27762 -2.65703,5.93465 -5.93464,5.93465 -3.27762,0 -5.93465,-2.65703 -5.93465,-5.93465 0,-3.27761 2.65703,-5.93464 5.93465,-5.93464 3.27761,0 5.93464,2.65703 5.93464,5.93464 z"
       transform="matrix(0.26804291,0,0,0.26804291,175.61322,95.102047)" />
    <path
       transform="matrix(0.26804291,0,0,0.26804291,183.13289,114.42121)"
       d="m 113.13708,110.5212 c 0,3.27762 -2.65703,5.93465 -5.93464,5.93465 -3.27762,0 -5.93465,-2.65703 -5.93465,-5.93465 0,-3.27761 2.65703,-5.93464 5.93465,-5.93464 3.27761,0 5.93464,2.65703 5.93464,5.93464 z"
       sodipodi:ry="5.9346461"
       sodipodi:rx="5.9346461"
       sodipodi:cy="110.5212"
       sodipodi:cx="107.20244"
       id="path3339"
       style="fill:#000000;stroke:none"
       sodipodi:type="arc" />
    <path
       inkscape:connector-curvature="0"
       id="path3366"
       d="m 239.19437,175.50743 26.23889,0"
       style="fill:none;stroke:#000000;stroke-width:1;stroke-linecap:butt;stroke-linejoin:miter;stroke-miterlimit:4;stroke-opacity:1;stroke-dasharray:none;marker-end:none"
       sodipodi:nodetypes="cc" />
    <path
       sodipodi:nodetypes="cscccccc"
       id="path3380"
       d="m 147.54227,199.44261 c -0.86414,1.5458 -4.68229,6.00308 -4.80255,14.41769 -0.12985,9.08545 4.51219,14.07901 4.68248,14.40768 0,0 -3.57999,-0.009 -8.28584,-0.0129 -16.18004,0.24542 -20.22027,-7.63861 -24.37154,-14.3948 4.18269,-6.71232 8.1915,-14.53481 24.37154,-14.46486 l 8.40591,0.0472 0,1e-5 z"
       style="fill:#ffffff;stroke:#000000;stroke-width:1.33297038;stroke-linecap:butt;stroke-linejoin:miter;stroke-miterlimit:4;stroke-opacity:1;stroke-dasharray:none"
       inkscape:connector-curvature="0" />
    <path
       transform="matrix(0.65357834,0,0,-0.65357834,38.422261,373.53439)"
       d="m 278.29703,380.61075 c 0,3.34735 -2.71356,6.06091 -6.06092,6.06091 -3.34735,0 -6.06091,-2.71356 -6.06091,-6.06091 0,-3.34735 2.71356,-6.06092 6.06091,-6.06092 3.34736,0 6.06092,2.71357 6.06092,6.06092 z"
       sodipodi:ry="6.0609155"
       sodipodi:rx="6.0609155"
       sodipodi:cy="380.61075"
       sodipodi:cx="272.23611"
       id="path3319"
       style="fill:#ffffff;stroke:#000000;stroke-width:1.83604622;stroke-miterlimit:4;stroke-dasharray:none"
       sodipodi:type="arc" />
    <path
       sodipodi:nodetypes="cccccccc"
       inkscape:original-d="m 221.4633,119.22228 0.006,30.19898 14.90381,0 5.27283,0 c 6.6401,-2.13569 14.35088,-8.63016 14.12193,-15.09949 -0.22896,-6.46934 -5.88131,-12.6422 -14.12193,-15.09949 l -5.27283,0 -15.61078,0.0494"
       inkscape:path-effect="#path-effect3321"
       id="path3317"
       d="m 221.4633,119.22228 0.006,30.19898 14.90381,0 5.27283,0 c 3.78472,-0.25351 7.45026,-1.992 10.04128,-4.76238 2.59102,-2.77038 4.08065,-6.54391 4.08065,-10.33711 0,-3.7932 -1.48963,-7.56673 -4.08065,-10.33711 -2.59102,-2.77038 -6.25656,-4.50887 -10.04128,-4.76238 -1.75761,-0.001 -3.51522,-0.001 -5.27283,0 -5.20362,0.004 -10.40724,0.0206 -15.61078,0.0494"
       style="fill:#ffffff;stroke:#000000;stroke-width:1.3969754;stroke-linecap:butt;stroke-linejoin:miter;stroke-miterlimit:4;stroke-opacity:1;stroke-dasharray:none"
       inkscape:connector-curvature="0" />
    <path
       sodipodi:type="arc"
       style="fill:#ffffff;stroke:#000000;stroke-width:1.83604622;stroke-miterlimit:4;stroke-dasharray:none"
       id="path3382"
       sodipodi:cx="272.23611"
       sodipodi:cy="380.61075"
       sodipodi:rx="6.0609155"
       sodipodi:ry="6.0609155"
       d="m 278.29703,380.61075 c 0,3.34735 -2.71356,6.06091 -6.06092,6.06091 -3.34735,0 -6.06091,-2.71356 -6.06091,-6.06091 0,-3.34735 2.71356,-6.06092 6.06091,-6.06092 3.34736,0 6.06092,2.71357 6.06092,6.06092 z"
       transform="matrix(0.52692821,0,0,-0.52692821,51.764578,377.70879)" />
    <path
       inkscape:connector-curvature="0"
       style="fill:#ffffff;stroke:#000000;stroke-width:1.3969754;stroke-linecap:butt;stroke-linejoin:miter;stroke-miterlimit:4;stroke-opacity:1;stroke-dasharray:none"
       d="m 221.4633,159.79372 0.006,30.19898 14.90381,0 5.27283,0 c 3.78472,-0.25351 7.45026,-1.992 10.04128,-4.76238 2.59102,-2.77038 4.08065,-6.54391 4.08065,-10.33711 0,-3.7932 -1.48963,-7.56673 -4.08065,-10.33711 -2.59102,-2.77038 -6.25656,-4.50887 -10.04128,-4.76238 -1.75761,-0.001 -3.51522,-0.001 -5.27283,0 -5.20362,0.004 -10.40724,0.0206 -15.61078,0.0494"
       id="path3388"
       inkscape:path-effect="#path-effect3390"
       inkscape:original-d="m 221.4633,159.79372 0.006,30.19898 14.90381,0 5.27283,0 c 6.6401,-2.13569 14.35088,-8.63016 14.12193,-15.09949 -0.22896,-6.46934 -5.88131,-12.6422 -14.12193,-15.09949 l -5.27283,0 -15.61078,0.0494"
       sodipodi:nodetypes="cccccccc" />
    <path
       sodipodi:nodetypes="cccccccc"
       inkscape:original-d="m 191.0669,173.79372 -0.006,30.19898 -14.90381,0 -5.27283,0 c -6.6401,-2.13569 -14.35088,-8.63016 -14.12193,-15.09949 0.22896,-6.46934 5.88131,-12.6422 14.12193,-15.09949 l 5.27283,0 15.61078,0.0494"
       inkscape:path-effect="#path-effect3394"
       id="path3392"
       d="m 191.0669,173.79372 -0.006,30.19898 -14.90381,0 -5.27283,0 c -3.78472,-0.25351 -7.45026,-1.992 -10.04128,-4.76238 -2.59102,-2.77038 -4.08065,-6.54391 -4.08065,-10.33711 0,-3.7932 1.48963,-7.56673 4.08065,-10.33711 2.59102,-2.77038 6.25656,-4.50887 10.04128,-4.76238 1.75761,-0.001 3.51522,-0.001 5.27283,0 5.20362,0.004 10.40724,0.0206 15.61078,0.0494"
       style="fill:#ffffff;stroke:#000000;stroke-width:1.3969754;stroke-linecap:butt;stroke-linejoin:miter;stroke-miterlimit:4;stroke-opacity:1;stroke-dasharray:none"
       inkscape:connector-curvature="0" />
    <path
       style="fill:none;stroke:#000000;stroke-width:1px;stroke-linecap:butt;stroke-linejoin:miter;stroke-opacity:1"
       d="m 204.40947,163.07647 0,68.53336"
       id="path3396"
       inkscape:connector-curvature="0"
       sodipodi:nodetypes="cc" />
    <path
       inkscape:connector-curvature="0"
       style="fill:#ffffff;stroke:#000000;stroke-width:1.3969754;stroke-linecap:butt;stroke-linejoin:miter;stroke-miterlimit:4;stroke-opacity:1;stroke-dasharray:none"
       d="m 191.0669,227.79372 -0.006,30.19898 -14.90381,0 -5.27283,0 c -3.78472,-0.25351 -7.45026,-1.992 -10.04128,-4.76238 -2.59102,-2.77038 -4.08065,-6.54391 -4.08065,-10.33711 0,-3.7932 1.48963,-7.56673 4.08065,-10.33711 2.59102,-2.77038 6.25656,-4.50887 10.04128,-4.76238 1.75761,-0.001 3.51522,-0.001 5.27283,0 5.20362,0.004 10.40724,0.0206 15.61078,0.0494"
       id="path3400"
       inkscape:path-effect="#path-effect3402"
       inkscape:original-d="m 191.0669,227.79372 -0.006,30.19898 -14.90381,0 -5.27283,0 c -6.6401,-2.13569 -14.35088,-8.63016 -14.12193,-15.09949 0.22896,-6.46934 5.88131,-12.6422 14.12193,-15.09949 l 5.27283,0 15.61078,0.0494"
       sodipodi:nodetypes="cccccccc" />
    <path
       style="fill:none;stroke:#000000;stroke-width:1px;stroke-linecap:butt;stroke-linejoin:miter;stroke-opacity:1"
       d="m 191.67645,231.36325 13.2449,0"
       id="path3404"
       inkscape:connector-curvature="0"
       sodipodi:nodetypes="cc" />
    <path
       style="fill:none;stroke:#000000;stroke-width:1px;stroke-linecap:butt;stroke-linejoin:miter;stroke-opacity:1"
       d="m 198.74751,177.06755 5.80838,0"
       id="path3406"
       inkscape:connector-curvature="0"
       sodipodi:nodetypes="cc" />
    <path
       sodipodi:type="arc"
       style="fill:#000000;stroke:none"
       id="path3408"
       sodipodi:cx="107.20244"
       sodipodi:cy="110.5212"
       sodipodi:rx="5.9346461"
       sodipodi:ry="5.9346461"
       d="m 113.13708,110.5212 c 0,3.27762 -2.65703,5.93465 -5.93464,5.93465 -3.27762,0 -5.93465,-2.65703 -5.93465,-5.93465 0,-3.27761 2.65703,-5.93464 5.93465,-5.93464 3.27761,0 5.93464,2.65703 5.93464,5.93464 z"
       transform="matrix(0.26804291,0,0,0.26804291,175.73949,157.10903)" />
    <path
       transform="matrix(0.26804291,0,0,0.26804291,175.67636,147.50625)"
       d="m 113.13708,110.5212 c 0,3.27762 -2.65703,5.93465 -5.93464,5.93465 -3.27762,0 -5.93465,-2.65703 -5.93465,-5.93465 0,-3.27761 2.65703,-5.93464 5.93465,-5.93464 3.27761,0 5.93464,2.65703 5.93464,5.93464 z"
       sodipodi:ry="5.9346461"
       sodipodi:rx="5.9346461"
       sodipodi:cy="110.5212"
       sodipodi:cx="107.20244"
       id="path3410"
       style="fill:#000000;stroke:none"
       sodipodi:type="arc" />
    <path
       style="fill:none;stroke:#000000;stroke-width:1px;stroke-linecap:butt;stroke-linejoin:miter;stroke-opacity:1"
       d="m 145,203.07647 8.57143,0 0,-15 2.85714,0"
       id="path3412"
       inkscape:connector-curvature="0" />
    <path
       style="fill:none;stroke:#000000;stroke-width:1px;stroke-linecap:butt;stroke-linejoin:miter;stroke-opacity:1"
       d="m 146.07143,225.71039 8.10318,0"
       id="path3414"
       inkscape:connector-curvature="0"
       sodipodi:nodetypes="cc" />
    <path
       style="fill:none;stroke:#000000;stroke-width:1px;stroke-linecap:butt;stroke-linejoin:miter;stroke-opacity:1"
       d="m 153.66946,225.61801 0,16.60438 2.96732,0"
       id="path3418"
       inkscape:connector-curvature="0" />
  </g>
</svg>
