<?xml version="1.0" encoding="UTF-8" standalone="no"?>
<!-- Created with Inkscape (http://www.inkscape.org/) -->

<svg
   xmlns:dc="http://purl.org/dc/elements/1.1/"
   xmlns:cc="http://creativecommons.org/ns#"
   xmlns:rdf="http://www.w3.org/1999/02/22-rdf-syntax-ns#"
   xmlns:svg="http://www.w3.org/2000/svg"
   xmlns="http://www.w3.org/2000/svg"
   xmlns:sodipodi="http://sodipodi.sourceforge.net/DTD/sodipodi-0.dtd"
   xmlns:inkscape="http://www.inkscape.org/namespaces/inkscape"
   width="230.76678"
   height="135.01392"
   id="svg5615"
   version="1.1"
   inkscape:version="0.48.3.1 r9886"
   sodipodi:docname="fork.svg">
  <defs
     id="defs5617">
    <marker
       inkscape:stockid="Arrow2Lend"
       orient="auto"
       refY="0"
       refX="0"
       id="Arrow2Lend"
       style="overflow:visible">
      <path
         inkscape:connector-curvature="0"
         id="path4182"
         style="fill-rule:evenodd;stroke-width:0.625;stroke-linejoin:round"
         d="M 8.7185878,4.0337352 -2.2072895,0.01601326 8.7185884,-4.0017078 c -1.7454984,2.3720609 -1.7354408,5.6174519 -6e-7,8.035443 z"
         transform="matrix(-1.1,0,0,-1.1,-1.1,0)" />
    </marker>
    <marker
       inkscape:stockid="Arrow2Lend"
       orient="auto"
       refY="0"
       refX="0"
       id="marker5565"
       style="overflow:visible">
      <path
         inkscape:connector-curvature="0"
         id="path5567"
         style="fill-rule:evenodd;stroke-width:0.625;stroke-linejoin:round"
         d="M 8.7185878,4.0337352 -2.2072895,0.01601326 8.7185884,-4.0017078 c -1.7454984,2.3720609 -1.7354408,5.6174519 -6e-7,8.035443 z"
         transform="matrix(-1.1,0,0,-1.1,-1.1,0)" />
    </marker>
    <marker
       inkscape:stockid="Arrow2Lend"
       orient="auto"
       refY="0"
       refX="0"
       id="marker5569"
       style="overflow:visible">
      <path
         inkscape:connector-curvature="0"
         id="path5571"
         style="fill-rule:evenodd;stroke-width:0.625;stroke-linejoin:round"
         d="M 8.7185878,4.0337352 -2.2072895,0.01601326 8.7185884,-4.0017078 c -1.7454984,2.3720609 -1.7354408,5.6174519 -6e-7,8.035443 z"
         transform="matrix(-1.1,0,0,-1.1,-1.1,0)" />
    </marker>
    <marker
       inkscape:stockid="Arrow1Lstart"
       orient="auto"
       refY="0"
       refX="0"
       id="Arrow1Lstart"
       style="overflow:visible">
      <path
         inkscape:connector-curvature="0"
         id="path4161"
         d="M 0,0 5,-5 -12.5,0 5,5 0,0 z"
         style="fill-rule:evenodd;stroke:#000000;stroke-width:1pt"
         transform="matrix(0.8,0,0,0.8,10,0)" />
    </marker>
    <marker
       inkscape:stockid="Arrow1Lstart"
       orient="auto"
       refY="0"
       refX="0"
       id="marker5575"
       style="overflow:visible">
      <path
         inkscape:connector-curvature="0"
         id="path5577"
         d="M 0,0 5,-5 -12.5,0 5,5 0,0 z"
         style="fill-rule:evenodd;stroke:#000000;stroke-width:1pt"
         transform="matrix(0.8,0,0,0.8,10,0)" />
    </marker>
    <marker
       inkscape:stockid="Arrow2Lend"
       orient="auto"
       refY="0"
       refX="0"
       id="marker5579"
       style="overflow:visible">
      <path
         inkscape:connector-curvature="0"
         id="path5581"
         style="fill-rule:evenodd;stroke-width:0.625;stroke-linejoin:round"
         d="M 8.7185878,4.0337352 -2.2072895,0.01601326 8.7185884,-4.0017078 c -1.7454984,2.3720609 -1.7354408,5.6174519 -6e-7,8.035443 z"
         transform="matrix(-1.1,0,0,-1.1,-1.1,0)" />
    </marker>
    <inkscape:path-effect
       is_visible="true"
       id="path-effect2840-3"
       effect="spiro" />
  </defs>
  <sodipodi:namedview
     id="base"
     pagecolor="#ffffff"
     bordercolor="#666666"
     borderopacity="1.0"
     inkscape:pageopacity="0.0"
     inkscape:pageshadow="2"
     inkscape:zoom="1.979899"
     inkscape:cx="133.12554"
     inkscape:cy="89.668746"
     inkscape:document-units="px"
     inkscape:current-layer="layer1"
     showgrid="false"
     inkscape:window-width="995"
     inkscape:window-height="808"
     inkscape:window-x="535"
     inkscape:window-y="97"
     inkscape:window-maximized="0"
     fit-margin-top="5"
     fit-margin-left="5"
     fit-margin-right="5"
     fit-margin-bottom="5" />
  <metadata
     id="metadata5620">
    <rdf:RDF>
      <cc:Work
         rdf:about="">
        <dc:format>image/svg+xml</dc:format>
        <dc:type
           rdf:resource="http://purl.org/dc/dcmitype/StillImage" />
        <dc:title />
      </cc:Work>
    </rdf:RDF>
  </metadata>
  <g
     inkscape:label="Layer 1"
     inkscape:groupmode="layer"
     id="layer1"
     transform="translate(-260.22891,-464.4314)">
    <path
       inkscape:connector-curvature="0"
       style="fill:none;stroke:#000000;stroke-width:1.5;stroke-linecap:butt;stroke-linejoin:miter;stroke-miterlimit:4;stroke-opacity:1;stroke-dasharray:none"
       d="m 332.31483,506.39521 0.006,-32.4261 16.00294,0 5.66169,0 c 4.06384,0.2722 7.9997,2.1389 10.78181,5.11359 2.7821,2.97469 4.38159,7.02651 4.38159,11.09946 0,4.07295 -1.59949,8.12477 -4.38159,11.09946 -2.78211,2.97469 -6.71797,4.84139 -10.78181,5.11359 -1.88723,0.002 -3.77446,0.002 -5.66169,0 -5.57332,-0.004 -11.14664,-0.0221 -16.71988,-0.053"
       id="path2838"
       inkscape:path-effect="#path-effect2840-3"
       inkscape:original-d="m 332.31483,506.39521 0.006,-32.4261 16.00294,0 5.66169,0 c 7.1298,2.29319 15.40924,9.26662 15.1634,16.21305 -0.24584,6.94644 -6.31505,13.57454 -15.1634,16.21305 l -5.66169,0 -16.71988,-0.053"
       sodipodi:nodetypes="cccccccc" />
    <path
       inkscape:connector-curvature="0"
       style="fill:none;stroke:#000000;stroke-width:1.5;stroke-linecap:butt;stroke-linejoin:miter;stroke-miterlimit:4;stroke-opacity:1;stroke-dasharray:none"
       d="m 365.05255,545.14107 c -0.97242,1.73949 -5.26901,6.75529 -5.40434,16.22431 -0.14612,10.22391 5.07759,15.8432 5.26923,16.21305 0,0 -4.02859,-0.01 -9.32411,-0.0145 -18.2075,0.27618 -22.754,-8.59577 -27.42545,-16.19856 4.70681,-7.55341 9.21795,-16.35611 27.42545,-16.27739 l 9.45922,0.0531 0,10e-6 z"
       id="path2838-6-3"
       sodipodi:nodetypes="cscccccc" />
    <path
       style="fill:none;stroke:#000000;stroke-width:1;stroke-linecap:butt;stroke-linejoin:miter;stroke-miterlimit:4;stroke-opacity:1;stroke-dasharray:none;marker-end:none"
       d="m 327.59047,561.60032 -39.00701,0"
       id="path3351"
       inkscape:connector-curvature="0" />
    <path
       style="fill:none;stroke:#000000;stroke-width:1px;stroke-linecap:butt;stroke-linejoin:miter;stroke-opacity:1;marker-start:none;marker-end:none"
       d="m 361.89535,574.22723 87.88327,0"
       id="path3353"
       inkscape:connector-curvature="0" />
    <path
       style="fill:none;stroke:#000000;stroke-width:1px;stroke-linecap:butt;stroke-linejoin:miter;stroke-opacity:1;marker-start:none;marker-end:none"
       d="m 362.90551,550.99372 27.27411,0 0.50507,-39.90103"
       id="path3355"
       inkscape:connector-curvature="0" />
    <path
       style="fill:none;stroke:#000000;stroke-width:1;stroke-linecap:butt;stroke-linejoin:miter;stroke-miterlimit:4;stroke-opacity:1;stroke-dasharray:none"
       d="m 390.24181,511.58037 59.63212,0"
       id="path3359"
       inkscape:connector-curvature="0" />
    <path
       style="fill:none;stroke:#000000;stroke-width:1;stroke-linecap:butt;stroke-linejoin:miter;stroke-miterlimit:4;stroke-opacity:1;stroke-dasharray:none;marker-end:none"
       d="m 369.94953,489.36932 79.91195,0"
       id="path3361"
       inkscape:connector-curvature="0" />
    <path
       style="fill:none;stroke:#000000;stroke-width:1;stroke-linecap:butt;stroke-linejoin:miter;stroke-miterlimit:4;stroke-opacity:1;stroke-dasharray:none;marker-end:none"
       d="m 421.42875,489.36932 0,69.20563 28.20253,0"
       id="path3363"
       inkscape:connector-curvature="0" />
    <path
       style="fill:none;stroke:#000000;stroke-width:1px;stroke-linecap:butt;stroke-linejoin:miter;stroke-opacity:1;marker-end:none"
       d="m 288.65929,479.27289 44.44672,0"
       id="path3365"
       inkscape:connector-curvature="0" />
    <path
       style="fill:none;stroke:#000000;stroke-width:1;stroke-linecap:butt;stroke-linejoin:miter;stroke-miterlimit:4;stroke-opacity:1;stroke-dasharray:none;marker-end:none"
       d="m 315.43125,561.33726 0,-61.85841 12.11601,0"
       id="path3367"
       inkscape:connector-curvature="0" />
    <path
       sodipodi:type="arc"
       style="fill:#ffffff;stroke:#000000;stroke-width:1.83604622;stroke-miterlimit:4;stroke-dasharray:none"
       id="path3369"
       sodipodi:cx="272.23611"
       sodipodi:cy="380.61075"
       sodipodi:rx="6.0609155"
       sodipodi:ry="6.0609155"
       d="m 278.29703,380.61075 c 0,3.34735 -2.71356,6.06091 -6.06092,6.06091 -3.34735,0 -6.06091,-2.71356 -6.06091,-6.06091 0,-3.34735 2.71356,-6.06092 6.06091,-6.06092 3.34736,0 6.06092,2.71357 6.06092,6.06092 z"
       transform="matrix(0.65357834,0,0,0.65357834,149.17742,250.96954)" />
    <text
       xml:space="preserve"
       style="font-size:40px;font-style:normal;font-weight:normal;line-height:125%;letter-spacing:0px;word-spacing:0px;fill:#000000;fill-opacity:1;stroke:none;font-family:Sans"
       x="266.73898"
       y="484.62671"
       id="text4149"
       sodipodi:linespacing="125%"><tspan
         sodipodi:role="line"
         id="tspan4151"
         x="266.73898"
         y="484.62671"
         style="font-size:20px">Vi</tspan></text>
    <text
       sodipodi:linespacing="125%"
       id="text4153"
       y="570.89374"
       x="263.91055"
       style="font-size:40px;font-style:normal;font-weight:normal;line-height:125%;letter-spacing:0px;word-spacing:0px;fill:#000000;fill-opacity:1;stroke:none;font-family:Sans"
       xml:space="preserve"><tspan
         style="font-size:20px"
         y="570.89374"
         x="263.91055"
         id="tspan4155"
         sodipodi:role="line">Si</tspan></text>
    <text
       xml:space="preserve"
       style="font-size:20px;font-style:normal;font-weight:normal;line-height:125%;letter-spacing:0px;word-spacing:0px;fill:#000000;fill-opacity:1;stroke:none;font-family:Sans"
       x="449.84958"
       y="489.57645"
       id="text4783"
       sodipodi:linespacing="125%"><tspan
         sodipodi:role="line"
         id="tspan4785"
         x="449.84958"
         y="489.57645">V</tspan></text>
    <text
       xml:space="preserve"
       style="font-size:16px;font-style:normal;font-weight:normal;line-height:125%;letter-spacing:0px;word-spacing:0px;fill:#000000;fill-opacity:1;stroke:none;font-family:Sans"
       x="464.69882"
       y="498.06174"
       id="text4787"
       sodipodi:linespacing="125%"><tspan
         sodipodi:role="line"
         id="tspan4789"
         x="464.69882"
         y="498.06174">O1</tspan></text>
    <text
       sodipodi:linespacing="125%"
       id="text5529"
       y="519.26544"
       x="449.84958"
       style="font-size:20px;font-style:normal;font-weight:normal;line-height:125%;letter-spacing:0px;word-spacing:0px;fill:#000000;fill-opacity:1;stroke:none;font-family:Sans"
       xml:space="preserve"><tspan
         y="519.26544"
         x="449.84958"
         id="tspan5531"
         sodipodi:role="line">S</tspan></text>
    <text
       sodipodi:linespacing="125%"
       id="text5533"
       y="527.75073"
       x="464.69882"
       style="font-size:16px;font-style:normal;font-weight:normal;line-height:125%;letter-spacing:0px;word-spacing:0px;fill:#000000;fill-opacity:1;stroke:none;font-family:Sans"
       xml:space="preserve"><tspan
         y="527.75073"
         x="464.69882"
         id="tspan5535"
         sodipodi:role="line">O1</tspan></text>
    <text
       sodipodi:linespacing="125%"
       id="text5537"
       y="560.04449"
       x="449.84958"
       style="font-size:20px;font-style:normal;font-weight:normal;line-height:125%;letter-spacing:0px;word-spacing:0px;fill:#000000;fill-opacity:1;stroke:none;font-family:Sans"
       xml:space="preserve"><tspan
         y="560.04449"
         x="449.84958"
         id="tspan5539"
         sodipodi:role="line">V</tspan></text>
    <text
       sodipodi:linespacing="125%"
       id="text5541"
       y="568.52979"
       x="464.69882"
       style="font-size:16px;font-style:normal;font-weight:normal;line-height:125%;letter-spacing:0px;word-spacing:0px;fill:#000000;fill-opacity:1;stroke:none;font-family:Sans"
       xml:space="preserve"><tspan
         y="568.52979"
         x="464.69882"
         id="tspan5543"
         sodipodi:role="line">O2</tspan></text>
    <text
       xml:space="preserve"
       style="font-size:20px;font-style:normal;font-weight:normal;line-height:125%;letter-spacing:0px;word-spacing:0px;fill:#000000;fill-opacity:1;stroke:none;font-family:Sans"
       x="449.84958"
       y="585.73346"
       id="text5545"
       sodipodi:linespacing="125%"><tspan
         sodipodi:role="line"
         id="tspan5547"
         x="449.84958"
         y="585.73346">S</tspan></text>
    <text
       xml:space="preserve"
       style="font-size:16px;font-style:normal;font-weight:normal;line-height:125%;letter-spacing:0px;word-spacing:0px;fill:#000000;fill-opacity:1;stroke:none;font-family:Sans"
       x="464.69882"
       y="594.21875"
       id="text5549"
       sodipodi:linespacing="125%"><tspan
         sodipodi:role="line"
         id="tspan5551"
         x="464.69882"
         y="594.21875">O2</tspan></text>
    <path
       transform="matrix(0.26804291,0,0,0.26804291,392.70543,459.68457)"
       d="m 113.13708,110.5212 c 0,3.27762 -2.65703,5.93465 -5.93464,5.93465 -3.27762,0 -5.93465,-2.65703 -5.93465,-5.93465 0,-3.27761 2.65703,-5.93464 5.93465,-5.93464 3.27761,0 5.93464,2.65703 5.93464,5.93464 z"
       sodipodi:ry="5.9346461"
       sodipodi:rx="5.9346461"
       sodipodi:cy="110.5212"
       sodipodi:cx="107.20244"
       id="path3339"
       style="fill:#000000;stroke:none"
       sodipodi:type="arc" />
    <path
       transform="matrix(0.26804291,0,0,0.26804291,286.68528,531.80361)"
       d="m 113.13708,110.5212 c 0,3.27762 -2.65703,5.93465 -5.93464,5.93465 -3.27762,0 -5.93465,-2.65703 -5.93465,-5.93465 0,-3.27761 2.65703,-5.93464 5.93465,-5.93464 3.27761,0 5.93464,2.65703 5.93464,5.93464 z"
       sodipodi:ry="5.9346461"
       sodipodi:rx="5.9346461"
       sodipodi:cy="110.5212"
       sodipodi:cx="107.20244"
       id="path3339-5"
       style="fill:#000000;stroke:none"
       sodipodi:type="arc" />
  </g>
</svg>
